<svg width="0" height="0" class="hidden">
  <symbol fill="none" xmlns="http://www.w3.org/2000/svg" viewBox="0 0 16 16" id="star">
    <path d="M10.544.889C9.896 5.947 10.087 7.436 5.56 8c4.45.69 4.514 2.249 4.984 7.111.62-4.89.499-6.355 4.985-7.111-4.521-.555-4.37-2.059-4.985-7.111zm-7.384.13C2.811 3.75 2.914 4.554.47 4.858c2.402.373 2.437 1.213 2.69 3.837.335-2.64.27-3.43 2.691-3.837-2.44-.3-2.358-1.111-2.69-3.837zm2.45 7.662c-.245 1.914-.174 2.477-1.887 2.69 1.685.262 1.709.851 1.886 2.691.236-1.85.189-2.405 1.887-2.69-1.71-.21-1.653-.78-1.887-2.691z" fill="#011F3A" stroke="#011F3A" stroke-width=".621" stroke-linecap="square"></path>
  </symbol>
  <symbol fill="none" xmlns="http://www.w3.org/2000/svg" viewBox="0 0 14 9" id="arrow">
    <path opacity=".3" d="M1.343 1.657L7 7.314l5.657-5.657" stroke="#3D5675" stroke-width="2"></path>
  </symbol>
</svg>